<svg width="32" height="32" viewBox="0 0 32 32" fill="none" xmlns="http://www.w3.org/2000/svg">
<g clip-path="url(#clip0_218_158)">
<path fill-rule="evenodd" clip-rule="evenodd" d="M16.0671 0.00808802C15.2096 0.0449765 14.4063 0.141749 13.5686 0.309035C11.5708 0.708027 9.51648 1.52762 8.01681 2.52408C7.86754 2.62326 7.84006 2.64981 7.88665 2.64981C7.92406 2.64981 8.46542 2.79186 8.68349 2.85889C10.0896 3.29118 11.2555 3.9824 12.1485 4.91306C13.3228 6.13697 13.9934 7.71381 14.1061 9.51557C14.12 9.7384 14.1133 10.4428 14.0953 10.6339C14.0613 10.9966 14.0218 11.2835 13.9672 11.5645C13.5399 13.7633 12.294 15.6394 10.5862 16.6558C10.4994 16.7074 10.3243 16.8021 10.197 16.8659C10.0221 16.9538 9.966 16.9867 9.96738 17.0007C9.97138 17.0413 11.8174 25.076 11.8217 25.0715C11.8242 25.069 11.8626 24.8829 11.9071 24.6581C12.5614 21.345 13.5996 18.6102 15.1864 16.0191C15.8594 14.92 16.6309 13.8349 17.7713 12.3826C17.94 12.1679 18.3022 11.7107 18.5761 11.3666C19.8026 9.82602 20.2832 9.19929 20.9352 8.28977L21.0055 8.19166L20.9349 8.18281C20.8116 8.16742 20.3013 8.17443 20.1173 8.19406C19.434 8.26693 18.772 8.42287 17.9133 8.71317C17.2528 8.93646 16.6069 9.1984 15.9198 9.52152C15.7073 9.62144 15.1306 9.91321 14.9703 10.0019L14.8834 10.05L14.8861 9.48696L14.8888 8.92394L15.0309 8.86096C15.7172 8.55659 16.5353 8.23682 17.2348 7.99957C18.8838 7.44022 20.5885 7.0583 21.7858 6.97997L21.9863 6.96687L22.0576 6.86453C22.5693 6.13073 22.9925 5.41985 23.3505 4.69263C23.5989 4.18841 23.7521 3.82279 23.8886 3.40918C24.0385 2.95453 24.1305 2.52931 24.1305 2.29088V2.22185L24.0577 2.1744C23.4511 1.77907 22.6652 1.36246 21.9687 1.06705C20.65 0.507671 19.2366 0.161738 17.7976 0.0461102C17.293 0.0055639 16.5202 -0.0114204 16.0671 0.00808802ZM24.765 2.59674C24.7914 2.69616 24.8076 2.96651 24.8078 3.31291C24.808 3.77727 24.7814 4.16469 24.7136 4.68193C24.6252 5.35728 24.4588 6.16696 24.2686 6.84769C24.2456 6.93001 24.2277 6.9981 24.2287 6.99902C24.2296 6.99992 24.3039 7.01335 24.3935 7.02883C25.708 7.25587 26.8767 7.88573 27.4831 8.69391C27.7629 9.06679 27.9319 9.47603 27.9867 9.91359C28.0081 10.0848 28.003 10.4456 27.9768 10.6105C27.7711 11.9045 26.7449 13.2909 24.8564 14.8263C24.0988 15.4423 23.2538 16.0367 22.074 16.7838C21.603 17.0819 21.439 17.2011 21.2954 17.3499C21.1896 17.4595 21.1319 17.5505 21.0992 17.659C21.0684 17.7615 21.0756 17.9353 21.1156 18.0512C21.1746 18.2229 21.3138 18.4592 21.4714 18.6554C21.5825 18.7938 22.0924 19.2527 23.2837 20.2864C24.5284 21.3664 24.9608 21.7609 25.4933 22.3022C25.8125 22.6267 26.0105 22.8445 26.231 23.1135C26.9361 23.9739 27.3428 24.7912 27.4805 25.6251C27.5933 26.3083 27.5338 27.0255 27.3026 27.7725C27.2818 27.8397 27.2663 27.899 27.268 27.9042C27.2727 27.9184 27.7194 27.4722 27.8929 27.2801C28.9588 26.1006 29.8957 24.5688 30.6137 22.832C31.6702 20.277 32.1433 17.4698 31.9622 14.8319C31.7913 12.3423 31.0596 10.0118 29.7832 7.89211C29.6339 7.64403 29.2768 7.10185 29.1047 6.8619C28.3014 5.74117 27.3602 4.71597 26.245 3.74677C25.8973 3.4445 25.4085 3.0521 25.03 2.77138C24.7313 2.54984 24.7572 2.56689 24.765 2.59674ZM6.60446 3.86944C5.80215 3.92743 5.11427 4.09943 4.39805 4.42113C3.67742 4.74481 2.93919 5.27801 2.40656 5.85952C2.09241 6.2025 1.93176 6.41183 1.66453 6.82635C1.52087 7.04921 1.29412 7.49609 1.17333 7.7944C1.00544 8.2091 0.853844 8.74514 0.798321 9.12053C0.754294 9.41815 0.743691 9.50227 0.728279 9.67669C0.714298 9.83488 0.711994 9.94638 0.716823 10.2328C0.723356 10.6206 0.731845 10.7448 0.772073 11.0404C0.862765 11.7067 1.0469 12.3215 1.33752 12.9281C1.62537 13.5289 1.94254 13.995 2.40543 14.4971C2.81978 14.9467 3.24758 15.2914 3.83435 15.6483C3.93371 15.7088 4.22616 15.8606 4.38477 15.9341C5.16904 16.2974 6.07407 16.5003 6.90906 16.5003C7.79729 16.5003 8.51649 16.3677 9.30381 16.0586C9.90451 15.8227 10.5348 15.4449 11.0333 15.0217C11.4188 14.6945 11.8032 14.2774 12.0888 13.8767C12.3078 13.5693 12.4383 13.3498 12.621 12.9816C12.9673 12.2841 13.1656 11.5855 13.2502 10.766C13.2757 10.5195 13.2751 9.87585 13.2493 9.61251C13.2029 9.13821 13.1236 8.73399 12.9935 8.30767C12.7866 7.63 12.4242 6.92047 11.9967 6.35585C11.8417 6.1513 11.472 5.72965 11.3763 5.64834C11.3565 5.63153 11.2849 5.56577 11.2171 5.50219C10.5127 4.84137 9.56386 4.32135 8.59797 4.06665C8.25035 3.97499 7.97662 3.9255 7.59333 3.88498C7.40083 3.86464 6.80126 3.85521 6.60446 3.86944ZM7.17779 5.65881C7.50324 5.70883 7.69098 5.75341 7.98257 5.84986C8.76444 6.10848 9.47754 6.60213 9.98028 7.23279C10.4954 7.87893 10.7883 8.58394 10.8802 9.39861C10.9124 9.68336 10.899 10.1393 10.8492 10.4542C10.7033 11.377 10.1778 12.2614 9.43956 12.8265C8.7195 13.3777 7.79916 13.6328 6.93619 13.5203C6.21046 13.4258 5.56048 13.1064 5.0572 12.5968C4.89195 12.4295 4.79192 12.3067 4.67206 12.1242C4.31566 11.5815 4.13798 10.9201 4.18403 10.3077C4.22598 9.74987 4.40256 9.26426 4.72422 8.8221C4.81362 8.69921 5.0403 8.46133 5.1685 8.35587C5.67672 7.93779 6.31825 7.73152 6.95162 7.78254C7.25975 7.80736 7.53629 7.88349 7.81425 8.02001C8.38408 8.29989 8.81382 8.80437 8.98065 9.38921C9.05083 9.63526 9.05976 9.70161 9.06032 9.98151C9.06078 10.2062 9.05784 10.2542 9.0367 10.3665C8.98771 10.6269 8.87896 10.896 8.73198 11.1206C8.62001 11.2917 8.38222 11.5347 8.22033 11.6438C7.92436 11.8429 7.65083 11.9382 7.29989 11.9643C6.88123 11.9955 6.46118 11.8642 6.11675 11.5946C6.01507 11.515 5.86564 11.3521 5.78338 11.2311C5.67818 11.0764 5.57672 10.8312 5.54064 10.6446C5.53116 10.5955 5.52627 10.4942 5.52644 10.3505C5.52667 10.1567 5.52958 10.1194 5.55147 10.0296C5.65446 9.60704 5.90797 9.27013 6.2663 9.0796C6.46404 8.97447 6.65228 8.9281 6.88158 8.92803C7.1009 8.92799 7.26845 8.96979 7.46709 9.07413C7.76255 9.22931 7.9713 9.49234 8.05842 9.81918C8.07834 9.89389 8.08172 9.93391 8.08169 10.0938C8.08164 10.3167 8.06597 10.3904 7.98277 10.5595C7.87317 10.7822 7.68956 10.9616 7.48093 11.0499C7.34644 11.1069 7.2622 11.1235 7.10941 11.1234C6.95393 11.1233 6.8763 11.1086 6.74916 11.0553C6.59213 10.9895 6.41616 10.8335 6.3374 10.6903C6.09236 10.2448 6.29339 9.7053 6.75744 9.56311C6.84703 9.53566 7.04118 9.53571 7.11994 9.56322C7.24066 9.60537 7.32294 9.65584 7.39874 9.73421C7.61997 9.96296 7.62841 10.2906 7.41897 10.5206C7.23407 10.7237 6.91569 10.7337 6.73593 10.5421C6.70365 10.5077 6.66442 10.4517 6.64874 10.4177C6.62371 10.3634 6.62024 10.3428 6.62024 10.2489C6.62024 10.1556 6.62379 10.1343 6.6481 10.0815C6.70446 9.9593 6.81683 9.88025 6.94636 9.87169C7.07764 9.86302 7.17445 9.9097 7.24309 10.0148C7.2798 10.071 7.28325 10.0828 7.28629 10.1624C7.28943 10.2443 7.28773 10.252 7.25474 10.3073C7.19796 10.4025 7.0926 10.4544 6.99366 10.436C6.94471 10.427 6.87633 10.3819 6.85041 10.3417C6.83537 10.3183 6.84001 10.3203 6.87827 10.3536C6.93131 10.3998 6.99121 10.4195 7.04945 10.41C7.14991 10.3937 7.22404 10.3215 7.24686 10.2179C7.28161 10.06 7.14876 9.90702 6.97837 9.90865C6.90003 9.90939 6.83537 9.93599 6.77335 9.99294C6.70071 10.0597 6.68342 10.1037 6.68339 10.2221C6.68335 10.3146 6.68614 10.3289 6.71427 10.3805C6.75281 10.4512 6.81062 10.5051 6.88724 10.5416C6.93738 10.5655 6.96071 10.5697 7.04103 10.5697C7.12174 10.5697 7.14459 10.5655 7.19587 10.5411C7.3666 10.4597 7.47058 10.2599 7.43578 10.0801C7.39091 9.84815 7.19543 9.68738 6.95831 9.68738C6.70055 9.68738 6.48553 9.86837 6.431 10.1312C6.40114 10.2752 6.41927 10.3972 6.49094 10.5343C6.57183 10.689 6.73402 10.8152 6.90926 10.8597C7.0182 10.8874 7.19569 10.8762 7.30517 10.8347C7.45682 10.7771 7.58175 10.6759 7.67185 10.5377C7.86599 10.2397 7.82315 9.82802 7.56925 9.55208C7.32413 9.28568 6.92372 9.19737 6.57747 9.33334C6.15359 9.49978 5.89165 9.94143 5.94182 10.405C5.97516 10.713 6.12135 10.9807 6.36419 11.1782C6.50306 11.2912 6.70188 11.3849 6.88999 11.4261C7.00226 11.4507 7.25412 11.4485 7.37767 11.4217C7.63235 11.3666 7.86906 11.2353 8.05291 11.0471C8.61145 10.4754 8.58526 9.55364 7.99369 8.96127C7.76177 8.72906 7.45046 8.57168 7.0989 8.50893C7.05101 8.50038 6.9435 8.4952 6.82538 8.49575C6.65788 8.49653 6.61235 8.50057 6.49866 8.52481C6.25202 8.57737 6.05934 8.65944 5.85654 8.79831C5.5814 8.98672 5.38795 9.20757 5.23787 9.50463C5.08028 9.81653 5.01326 10.1595 5.03659 10.5347C5.05222 10.786 5.1165 11.0246 5.23661 11.2775C5.34596 11.5077 5.45923 11.6688 5.6414 11.8533C5.97872 12.1949 6.39333 12.4061 6.88458 12.4866C7.02255 12.5093 7.39895 12.5118 7.54598 12.4911C8.07822 12.4161 8.56089 12.1714 8.94019 11.7845C9.34681 11.3695 9.5841 10.8819 9.67175 10.281C9.69423 10.1269 9.6877 9.62518 9.66139 9.48417C9.56972 8.99299 9.392 8.58482 9.10274 8.20114C8.70315 7.67114 8.08376 7.2735 7.41343 7.11664C7.16204 7.05782 7.05471 7.04443 6.78269 7.03801C6.4029 7.02904 6.2229 7.05024 5.84703 7.14816C5.42602 7.25786 4.97904 7.49005 4.61301 7.78918C4.459 7.91504 4.21051 8.17002 4.09667 8.31902C3.96703 8.4887 3.81923 8.71847 3.73809 8.87651C3.54699 9.24874 3.41475 9.67985 3.35897 10.1124C3.33685 10.2841 3.33731 10.8447 3.35972 11.0194C3.45184 11.7373 3.74868 12.4309 4.20407 12.9922C4.32827 13.1454 4.59513 13.417 4.74582 13.5437C5.30431 14.0131 5.98331 14.3243 6.72795 14.4521C7.01517 14.5015 7.42743 14.5223 7.69852 14.5013C7.8831 14.4869 8.15907 14.4536 8.24556 14.4353C9.02568 14.2701 9.67606 13.9607 10.2759 13.4694C10.4633 13.3159 10.8039 12.967 10.9556 12.773C11.1957 12.4663 11.3538 12.2134 11.517 11.8746C11.801 11.2855 11.9573 10.7006 12.0024 10.0577C12.0193 9.81633 12.0085 9.32432 11.9812 9.09658C11.9169 8.56074 11.8041 8.14242 11.5813 7.61419C11.5049 7.43337 11.4648 7.35075 11.3726 7.18465C11.0977 6.68967 10.8291 6.33208 10.4291 5.9287C10.285 5.78336 10.2641 5.75891 10.3232 5.80485C10.769 6.15125 11.1444 6.54521 11.4704 7.00874C12.0414 7.8203 12.3784 8.77095 12.4542 9.78342C12.4704 9.99954 12.4614 10.5717 12.4386 10.7676C12.3353 11.6597 12.0544 12.4517 11.5838 13.1781C11.0472 14.0064 10.3296 14.6542 9.45534 15.0994C8.85508 15.4051 8.24795 15.5839 7.54073 15.663C7.30756 15.6891 6.66557 15.689 6.43614 15.6629C5.63659 15.5717 4.92032 15.3374 4.24801 14.947C4.09431 14.8577 3.77099 14.6374 3.6326 14.5274C2.80047 13.867 2.19567 13.0283 1.83895 12.0403C1.78768 11.8984 1.73688 11.6359 1.70025 11.3238C1.68057 11.1561 1.67696 11.0689 1.67661 10.7516C1.67617 10.3623 1.68146 10.2823 1.72906 9.95817C1.95151 8.44355 2.79773 7.12833 4.05865 6.33743C4.57565 6.01314 5.15246 5.79343 5.77866 5.68225C6.06322 5.63171 6.17664 5.62426 6.60446 5.62794C6.9646 5.63103 7.01452 5.63371 7.17779 5.65881ZM23.6622 8.53954C23.4857 8.94757 23.1532 9.63279 22.9322 10.0432C22.2418 11.3259 21.4103 12.6257 20.1869 14.3345C19.8519 14.8025 19.5998 15.1481 18.8337 16.1902C17.541 17.9486 17.1006 18.5617 16.5478 19.3721C14.5892 22.2433 13.6104 24.4123 13.3697 26.415C13.327 26.7701 13.3214 26.8813 13.3216 27.3669C13.3218 27.8918 13.328 27.9841 13.3958 28.4686C13.4546 28.8889 13.5063 29.1229 13.5967 29.3771C13.7897 29.9208 14.1348 30.3574 14.7065 30.7813C14.9762 30.9814 15.2728 31.1581 15.6989 31.3725C16.0245 31.5363 16.1628 31.5918 16.4721 31.6823C17.1999 31.8952 17.9985 31.9999 18.8969 32C19.6953 32.0001 20.3869 31.9197 21.0745 31.7467C22.5492 31.376 23.6422 30.6385 24.2464 29.6066C24.5495 29.0891 24.7168 28.5646 24.8006 27.8696C24.8241 27.6746 24.8277 26.9489 24.8061 26.7359C24.7534 26.215 24.7143 26.0055 24.6094 25.6824C24.47 25.2528 24.3245 24.9072 24.1564 24.6064C23.8969 24.1419 23.4706 23.6126 22.9463 23.1035C22.2414 22.4192 21.2217 21.5838 19.9126 20.6178C19.6161 20.3991 19.4703 20.2632 19.2982 20.0459C18.7916 19.4058 18.6 18.704 18.7812 18.1512C18.8577 17.9174 18.9712 17.735 19.1598 17.5425C19.3626 17.3354 19.4314 17.2878 20.0541 16.9226C21.1471 16.2817 21.9377 15.7658 22.5999 15.2615C24.1585 14.0744 25.0146 12.9398 25.1929 11.8243C25.32 11.0296 25.1108 10.2485 24.5598 9.45997C24.3712 9.19003 24.0695 8.84041 23.8182 8.60049L23.6892 8.47728L23.6622 8.53954ZM0.0464239 12.7463C5.24564e-05 13.3216 -0.0158221 14.9897 0.0184201 15.6875C0.0655912 16.6488 0.130088 17.3635 0.240884 18.1528C0.74246 21.7258 2.02826 24.7819 4.02745 27.153C4.47483 27.6835 5.07476 28.2937 5.5893 28.7414C6.79373 29.7893 8.18124 30.6277 9.59736 31.1633C10.2131 31.3962 10.8313 31.5718 11.3857 31.6712C11.4726 31.6867 11.5567 31.7021 11.5729 31.7053C11.5994 31.7106 11.6016 31.7087 11.5961 31.6862C11.5927 31.6723 10.8686 28.483 9.98695 24.5985C9.10526 20.7141 8.3823 17.5343 8.38036 17.5322C8.37842 17.5303 8.31297 17.5376 8.23492 17.5486C7.86638 17.6005 7.52983 17.6234 7.13589 17.6233C6.8106 17.6233 6.59054 17.6118 6.30464 17.5798C4.72758 17.4032 3.26564 16.7258 2.03358 15.6007C1.88597 15.4658 1.5246 15.0969 1.39588 14.9495C0.807936 14.2765 0.34098 13.5067 0.10786 12.8265L0.0528831 12.6661L0.0464239 12.7463Z" fill="url(#paint0_linear_218_158)"/>
</g>
<defs>
<linearGradient id="paint0_linear_218_158" x1="3.25715" y1="4.44444" x2="28" y2="26.8572" gradientUnits="userSpaceOnUse">
<stop stop-color="#3CE900"/>
<stop offset="0.492673" stop-color="#00F4B9"/>
<stop offset="1" stop-color="#FAFF00"/>
</linearGradient>
<clipPath id="clip0_218_158">
<rect width="32" height="32" rx="16" fill="white"/>
</clipPath>
</defs>
</svg>
