<svg width="224" height="56" viewBox="0 0 224 56" fill="none" xmlns="http://www.w3.org/2000/svg">
<g id="Logo">
<g id="Group">
<path id="Vector" fill-rule="evenodd" clip-rule="evenodd" d="M26.1006 1.41312C24.7076 1.47293 23.4027 1.62983 22.0418 1.90107C18.7964 2.54798 15.4593 3.87686 13.0231 5.4925C12.7806 5.6533 12.736 5.69635 12.8116 5.69635C12.8724 5.69635 13.7519 5.92667 14.1061 6.03536C16.3903 6.73624 18.2843 7.85699 19.7348 9.36597C21.6424 11.3504 22.7319 13.907 22.915 16.8284C22.9376 17.1897 22.9266 18.3318 22.8975 18.6417C22.8422 19.2298 22.7781 19.6949 22.6894 20.1504C21.9952 23.7156 19.9712 26.7575 17.1971 28.4054C17.0561 28.4891 16.7715 28.6425 16.5647 28.7461C16.2806 28.8886 16.1895 28.942 16.1917 28.9646C16.1982 29.0304 19.197 42.0578 19.2041 42.0505C19.2082 42.0464 19.2706 41.7446 19.3428 41.3801C20.4056 36.0084 22.0921 31.5742 24.6699 27.373C25.7632 25.591 27.0164 23.8316 28.8691 21.4769C29.1431 21.1288 29.7314 20.3876 30.1764 19.8295C32.1689 17.3317 32.9495 16.3156 34.0087 14.8409L34.1229 14.6818L34.0082 14.6674C33.8079 14.6425 32.9789 14.6539 32.68 14.6857C31.57 14.8038 30.4946 15.0567 29.0996 15.5274C28.0267 15.8894 26.9775 16.3141 25.8613 16.838C25.5161 17 24.5793 17.4731 24.3188 17.6169L24.1778 17.6948L24.182 16.782L24.1865 15.8691L24.4172 15.767C25.5321 15.2735 26.8612 14.755 27.9974 14.3704C30.6762 13.4634 33.4455 12.8442 35.3905 12.7172L35.7162 12.6959L35.832 12.53C36.6632 11.3403 37.3507 10.1876 37.9323 9.00852C38.3357 8.19099 38.5847 7.59822 38.8064 6.92756C39.05 6.19041 39.1994 5.50098 39.1994 5.11439V5.00247L39.0812 4.92553C38.0957 4.28456 36.819 3.60907 35.6876 3.1301C33.5453 2.22313 31.2493 1.66224 28.9118 1.47476C28.0921 1.40902 26.8367 1.38148 26.1006 1.41312ZM40.2302 5.61031C40.2731 5.7715 40.2992 6.20985 40.2996 6.77151C40.3 7.52438 40.2567 8.15253 40.1466 8.99121C40.0029 10.0862 39.7326 11.399 39.4237 12.5027C39.3864 12.6362 39.3572 12.7466 39.3589 12.7481C39.3604 12.7495 39.481 12.7713 39.6266 12.7964C41.762 13.1645 43.6605 14.1858 44.6456 15.4961C45.1001 16.1007 45.3747 16.7643 45.4636 17.4737C45.4985 17.7513 45.4901 18.3363 45.4476 18.6037C45.1135 20.7017 43.4464 22.9496 40.3785 25.439C39.1478 26.4378 37.7752 27.4016 35.8586 28.6129C35.0935 29.0963 34.8271 29.2896 34.5939 29.5309C34.422 29.7086 34.3282 29.8561 34.2751 30.0319C34.225 30.1981 34.2367 30.48 34.3017 30.6679C34.3977 30.9462 34.6238 31.3294 34.8798 31.6475C35.0602 31.8719 35.8885 32.6159 37.8237 34.292C39.8457 36.0431 40.5482 36.6827 41.4132 37.5603C41.9317 38.0866 42.2534 38.4396 42.6116 38.8758C43.7571 40.2709 44.4176 41.596 44.6413 42.9481C44.8246 44.0558 44.728 45.2186 44.3524 46.4297C44.3187 46.5387 44.2934 46.6349 44.2962 46.6434C44.3038 46.6664 45.0295 45.9429 45.3114 45.6315C47.0428 43.719 48.5647 41.2354 49.7312 38.4194C51.4474 34.2768 52.2162 29.7252 51.922 25.4481C51.6443 21.4115 50.4554 17.633 48.3821 14.1961C48.1394 13.7939 47.5594 12.9148 47.2798 12.5258C45.9749 10.7086 44.446 9.04638 42.6344 7.47494C42.0695 6.98484 41.2754 6.34862 40.6605 5.89347C40.1754 5.53426 40.2174 5.56191 40.2302 5.61031ZM10.7288 7.67385C9.42543 7.76784 8.30802 8.04672 7.1445 8.56835C5.97389 9.09313 4.77464 9.95765 3.9094 10.9005C3.39907 11.4566 3.1381 11.796 2.70398 12.4681C2.47061 12.8294 2.10225 13.554 1.90604 14.0377C1.6333 14.7101 1.38705 15.5792 1.29685 16.1878C1.22533 16.6704 1.2081 16.8068 1.18307 17.0896C1.16036 17.3461 1.15661 17.5269 1.16446 17.9913C1.17507 18.6201 1.18886 18.8214 1.25421 19.3006C1.40154 20.3811 1.70067 21.3778 2.17277 22.3614C2.64038 23.3355 3.1556 24.0912 3.90756 24.9054C4.58067 25.6344 5.27562 26.1932 6.22879 26.7719C6.39018 26.87 6.86527 27.1161 7.12292 27.2352C8.39698 27.8243 9.8672 28.1533 11.2236 28.1533C12.6665 28.1533 13.8348 27.9382 15.1138 27.4371C16.0896 27.0547 17.1134 26.4421 17.9234 25.7559C18.5495 25.2254 19.174 24.5491 19.6379 23.8994C19.9936 23.4009 20.2057 23.0451 20.5026 22.4481C21.0651 21.3172 21.3872 20.1845 21.5246 18.8557C21.566 18.4561 21.5651 17.4125 21.5231 16.9856C21.4477 16.2165 21.3189 15.5611 21.1076 14.8699C20.7715 13.7711 20.1829 12.6207 19.4883 11.7052C19.2366 11.3736 18.636 10.6899 18.4806 10.5581C18.4484 10.5309 18.332 10.4243 18.2219 10.3211C17.0776 9.24973 15.5362 8.40656 13.9672 7.99358C13.4025 7.84497 12.9578 7.76475 12.3351 7.69904C12.0225 7.66607 11.0484 7.65075 10.7288 7.67385ZM11.6602 10.5751C12.1888 10.6562 12.4938 10.7285 12.9675 10.8849C14.2376 11.3042 15.396 12.1046 16.2127 13.1271C17.0495 14.1747 17.5253 15.3178 17.6747 16.6387C17.7269 17.1004 17.7051 17.8396 17.6242 18.3502C17.3873 19.8464 16.5336 21.2804 15.3343 22.1967C14.1646 23.0904 12.6695 23.504 11.2676 23.3216C10.0887 23.1684 9.03286 22.6505 8.21531 21.8242C7.94682 21.5529 7.78438 21.3539 7.58967 21.058C7.01068 20.178 6.72206 19.1057 6.79684 18.1127C6.86502 17.2083 7.15184 16.4209 7.67438 15.704C7.81959 15.5047 8.18783 15.119 8.39608 14.9481C9.22168 14.2702 10.2638 13.9357 11.2927 14.0184C11.7933 14.0587 12.2425 14.1821 12.694 14.4035C13.6197 14.8573 14.3178 15.6752 14.5888 16.6235C14.7028 17.0224 14.7173 17.13 14.7182 17.5838C14.719 17.9482 14.7142 18.0259 14.6799 18.2081C14.6003 18.6303 14.4236 19.0666 14.1849 19.4307C14.003 19.7081 13.6167 20.1022 13.3537 20.279C12.8729 20.6018 12.4286 20.7563 11.8585 20.7988C11.1784 20.8493 10.496 20.6364 9.93648 20.1993C9.77134 20.0702 9.52858 19.806 9.39496 19.6099C9.22403 19.359 9.05924 18.9616 9.00064 18.659C8.98521 18.5794 8.97727 18.4151 8.97757 18.1821C8.97792 17.8679 8.98266 17.8074 9.01823 17.6619C9.18551 16.9767 9.59736 16.4304 10.1794 16.1215C10.5007 15.951 10.8064 15.8758 11.179 15.8757C11.5352 15.8757 11.8074 15.9434 12.1301 16.1126C12.6101 16.3643 12.9492 16.7907 13.0907 17.3206C13.123 17.4417 13.1285 17.5067 13.1285 17.7659C13.1284 18.1273 13.103 18.2468 12.9678 18.521C12.7898 18.882 12.4915 19.1729 12.1526 19.3161C11.9341 19.4085 11.7973 19.4354 11.5491 19.4353C11.2965 19.4351 11.1704 19.4113 10.9638 19.3249C10.7087 19.2181 10.4229 18.9652 10.2949 18.7331C9.89687 18.0107 10.2235 17.136 10.9773 16.9054C11.1228 16.8609 11.4382 16.861 11.5661 16.9056C11.7623 16.974 11.8959 17.0558 12.0191 17.1829C12.3785 17.5537 12.3921 18.0851 12.0519 18.4579C11.7516 18.7871 11.2344 18.8034 10.9424 18.4927C10.8899 18.4369 10.8262 18.3462 10.8007 18.291C10.76 18.203 10.7544 18.1697 10.7544 18.0174C10.7544 17.866 10.7602 17.8315 10.7996 17.746C10.8912 17.5478 11.0738 17.4196 11.2842 17.4058C11.4975 17.3917 11.6547 17.4674 11.7662 17.6378C11.8258 17.7289 11.8314 17.7481 11.8364 17.8771C11.8415 18.0099 11.8387 18.0224 11.7851 18.1121C11.6929 18.2664 11.5217 18.3506 11.361 18.3208C11.2815 18.3061 11.1704 18.233 11.1283 18.1678C11.1039 18.13 11.1114 18.1332 11.1736 18.1872C11.2597 18.262 11.357 18.294 11.4517 18.2786C11.6148 18.2522 11.7353 18.1351 11.7723 17.967C11.8288 17.7111 11.613 17.463 11.3362 17.4657C11.2089 17.4669 11.1039 17.51 11.0031 17.6023C10.8852 17.7105 10.857 17.782 10.857 17.974C10.8569 18.1239 10.8615 18.147 10.9071 18.2307C10.9698 18.3454 11.0637 18.4327 11.1882 18.4919C11.2696 18.5307 11.3075 18.5376 11.438 18.5376C11.5691 18.5376 11.6062 18.5308 11.6895 18.4911C11.9669 18.3592 12.1357 18.0352 12.0792 17.7437C12.0063 17.3676 11.6888 17.1069 11.3036 17.1069C10.8849 17.1069 10.5355 17.4004 10.447 17.8266C10.3985 18.0601 10.428 18.2578 10.5444 18.4801C10.6758 18.7309 10.9393 18.9355 11.2239 19.0078C11.4009 19.0527 11.6892 19.0344 11.8671 18.9671C12.1134 18.8738 12.3164 18.7098 12.4627 18.4856C12.7781 18.0024 12.7085 17.335 12.296 16.8876C11.8979 16.4556 11.2474 16.3125 10.6849 16.5329C9.99637 16.8028 9.57084 17.5188 9.65236 18.2705C9.70651 18.7699 9.94397 19.2039 10.3384 19.5241C10.564 19.7073 10.887 19.8592 11.1926 19.9261C11.375 19.966 11.7841 19.9623 11.9848 19.9189C12.3985 19.8296 12.7831 19.6167 13.0817 19.3116C13.9891 18.3846 13.9465 16.8901 12.9855 15.9296C12.6088 15.5532 12.1031 15.298 11.532 15.1962C11.4542 15.1823 11.2795 15.174 11.0877 15.1749C10.8156 15.1761 10.7416 15.1827 10.5569 15.222C10.1562 15.3072 9.84322 15.4403 9.51379 15.6654C9.06683 15.9709 8.75258 16.329 8.50877 16.8106C8.25277 17.3163 8.14393 17.8725 8.18179 18.4807C8.20721 18.8882 8.31161 19.2752 8.50672 19.6851C8.68435 20.0583 8.86837 20.3196 9.16428 20.6187C9.7123 21.1725 10.3858 21.515 11.1838 21.6456C11.408 21.6823 12.0194 21.6864 12.2583 21.6528C13.1229 21.5313 13.9069 21.1345 14.5231 20.5071C15.1836 19.8344 15.5691 19.0437 15.7115 18.0694C15.748 17.8196 15.7374 17.0061 15.6947 16.7775C15.5458 15.9811 15.2571 15.3193 14.7872 14.6972C14.138 13.8378 13.1319 13.1931 12.0429 12.9388C11.6345 12.8434 11.4602 12.8217 11.0183 12.8113C10.4013 12.7968 10.1089 12.8311 9.49836 12.9899C8.81442 13.1678 8.08833 13.5442 7.49371 14.0292C7.2435 14.2333 6.83984 14.6467 6.65492 14.8883C6.44433 15.1634 6.20421 15.5359 6.07244 15.7922C5.76199 16.3957 5.54715 17.0947 5.45659 17.7961C5.42063 18.0744 5.42138 18.9835 5.45779 19.2667C5.60744 20.4306 6.08962 21.5552 6.82941 22.4653C7.03116 22.7137 7.46469 23.1541 7.70945 23.3594C8.61672 24.1206 9.71974 24.6252 10.9294 24.8324C11.396 24.9124 12.0657 24.9461 12.506 24.9121C12.8059 24.8887 13.2542 24.8348 13.3947 24.8052C14.662 24.5372 15.7185 24.0356 16.6929 23.239C16.9973 22.9901 17.5506 22.4244 17.7971 22.1099C18.1872 21.6126 18.4439 21.2026 18.7091 20.6533C19.1705 19.6981 19.4243 18.7498 19.4976 17.7073C19.5251 17.316 19.5074 16.5183 19.4631 16.149C19.3587 15.2802 19.1755 14.602 18.8134 13.7455C18.6895 13.4523 18.6243 13.3184 18.4745 13.0491C18.028 12.2465 17.5916 11.6667 16.9419 11.0127C16.7078 10.777 16.6738 10.7374 16.7698 10.8118C17.4939 11.3735 18.1038 12.0123 18.6334 12.7638C19.5609 14.0797 20.1084 15.6211 20.2315 17.2626C20.2578 17.6131 20.2432 18.5408 20.2062 18.8584C20.0384 20.3048 19.5821 21.5889 18.8175 22.7667C17.9458 24.1097 16.7801 25.16 15.36 25.8819C14.3849 26.3776 13.3986 26.6674 12.2497 26.7957C11.8709 26.8381 10.8281 26.8379 10.4553 26.7955C9.15649 26.6476 7.99292 26.2677 6.90079 25.6348C6.65108 25.49 6.12589 25.1328 5.90106 24.9545C4.54929 23.8837 3.56681 22.5239 2.98733 20.922C2.90404 20.6918 2.82152 20.2662 2.76202 19.7602C2.73005 19.4882 2.72418 19.3469 2.7236 18.8324C2.7229 18.2013 2.7315 18.0715 2.80882 17.546C3.17018 15.0902 4.54484 12.9578 6.59318 11.6754C7.43302 11.1496 8.37006 10.7933 9.38727 10.6131C9.84952 10.5312 10.0338 10.5191 10.7288 10.525C11.3138 10.53 11.3949 10.5344 11.6602 10.5751ZM38.4386 15.2458C38.152 15.9074 37.6117 17.0184 37.2529 17.6839C36.1313 19.7636 34.7805 21.8711 32.793 24.6417C32.2489 25.4005 31.8393 25.9609 30.5949 27.6505C28.495 30.5015 27.7795 31.4956 26.8814 32.8096C23.6997 37.4649 22.1097 40.9817 21.7188 44.2288C21.6493 44.8045 21.6402 44.9848 21.6406 45.7721C21.641 46.6232 21.651 46.7729 21.7611 47.5584C21.8567 48.24 21.9407 48.6193 22.0875 49.0315C22.4011 49.913 22.9616 50.6209 23.8904 51.3081C24.3285 51.6324 24.8103 51.9192 25.5024 52.2665C26.0313 52.5324 26.256 52.6222 26.7586 52.7688C27.9408 53.1141 29.2382 53.2842 30.6976 53.2842C31.9946 53.2842 33.1179 53.154 34.235 52.8736C36.6305 52.2725 38.4061 51.0767 39.3877 49.4036C39.88 48.5646 40.1518 47.7141 40.2879 46.5872C40.3262 46.2711 40.3319 45.0945 40.2968 44.749C40.2112 43.9045 40.1477 43.5648 39.9773 43.041C39.7508 42.3444 39.5145 41.7841 39.2414 41.2964C38.8199 40.5433 38.1275 39.685 37.2757 38.8596C36.1305 37.7501 34.4742 36.3955 32.3475 34.8293C31.8659 34.4747 31.629 34.2544 31.3494 33.9021C30.5264 32.8642 30.2153 31.7263 30.5095 30.83C30.6339 30.4509 30.8183 30.1552 31.1246 29.8431C31.4541 29.5073 31.5659 29.4301 32.5773 28.838C34.3529 27.7989 35.6373 26.9624 36.713 26.1447C39.2449 24.22 40.6357 22.3803 40.9253 20.5718C41.1317 19.2832 40.7918 18.0167 39.8967 16.7382C39.5904 16.3005 39.1003 15.7337 38.6921 15.3447L38.4824 15.1449L38.4386 15.2458ZM0.0754146 22.0666C8.52039e-05 22.9994 -0.0257025 25.7041 0.029923 26.8355C0.106551 28.3941 0.211325 29.5529 0.391309 30.8326C1.20611 36.6258 3.29486 41.581 6.54248 45.4254C7.26923 46.2856 8.24383 47.2749 9.07967 48.0007C11.0363 49.6997 13.2902 51.0591 15.5907 51.9277C16.591 52.3054 17.5952 52.5897 18.4959 52.7509C18.6369 52.7763 18.7735 52.8013 18.7999 52.8063C18.843 52.8152 18.8465 52.8118 18.8376 52.7753C18.832 52.7529 17.6558 47.5818 16.2235 41.2836C14.7913 34.9854 13.6169 29.8297 13.6137 29.8264C13.6105 29.8233 13.5042 29.8351 13.3774 29.8529C12.7787 29.9371 12.232 29.9743 11.5921 29.9741C11.0636 29.9741 10.7062 29.9554 10.2417 29.9035C7.67983 29.6172 5.30494 28.5189 3.3035 26.6946C3.0637 26.476 2.47667 25.8779 2.26756 25.6388C1.31247 24.5476 0.553911 23.2996 0.175216 22.1967L0.0859074 21.9365L0.0754146 22.0666Z" fill="url(#paint0_linear_140094_4855)"/>
<g id="Group_2">
<path id="Vector_2" d="M71.6247 25.6876C75.8316 25.6876 78.3996 23.5595 78.3996 20.0946C78.3996 17.4891 76.5144 15.5656 73.8375 15.3064V15.1973C75.8591 14.8699 77.4295 13.0283 77.4295 10.9139C77.4295 7.92641 75.1213 6.00299 71.5428 6.00299H63.1974V25.6876H71.6247ZM66.7215 8.74493H70.6686C72.7586 8.74493 73.9469 9.71347 73.9469 11.4323C73.9469 13.2602 72.5673 14.297 70.1087 14.297H66.7215V8.74493ZM66.7215 22.9456V16.7934H70.6826C73.373 16.7934 74.7936 17.8437 74.7936 19.849C74.7936 21.868 73.4139 22.9456 70.819 22.9456H66.7215ZM80.6119 25.6876H84.0131V17.0389C84.0131 14.9381 85.215 13.6422 87.209 13.6422C87.7965 13.6422 88.3294 13.724 88.6162 13.8332V10.7502C88.3564 10.6683 87.9743 10.6138 87.5232 10.6138C85.7614 10.6138 84.4227 11.6233 83.9447 13.3694H83.8768V10.7775H80.6119V25.6876ZM95.5134 23.2458C93.9295 23.2458 92.891 22.4818 92.891 21.2814C92.891 20.0673 93.8745 19.3579 95.7322 19.2352L99.1469 19.0169V20.1491C99.1469 21.9635 97.5759 23.2458 95.5134 23.2458ZM94.5164 25.8512C96.497 25.8512 98.3412 24.8827 99.1604 23.2867H99.2423V25.6876H102.507V15.4701C102.507 12.5099 100.089 10.5729 96.3606 10.5729C92.85 10.5729 90.31 12.5236 90.2276 15.2519H93.3695C93.6013 14.0514 94.7077 13.2466 96.2512 13.2466C98.0815 13.2466 99.1469 14.106 99.1469 15.6884V16.7797L95.2677 17.0116C91.5118 17.2435 89.4768 18.7577 89.4768 21.4178C89.4768 24.0642 91.5798 25.8512 94.5164 25.8512ZM105.361 25.6876H108.763V17.1344C108.763 14.9518 110.019 13.4785 112.109 13.4785C114.158 13.4785 115.168 14.6789 115.168 16.807V25.6876H118.57V16.1386C118.57 12.6873 116.684 10.6001 113.379 10.6001C111.084 10.6001 109.582 11.5551 108.694 13.3694H108.626V10.7775H105.361V25.6876ZM126.983 25.8512C129.168 25.8512 130.89 24.8145 131.695 23.1503H131.764V25.6876H135.096V5.08901H131.695V13.2875H131.613C130.808 11.6369 129.127 10.6138 126.969 10.6138C123.268 10.6138 120.768 13.6012 120.768 18.2257C120.768 22.8638 123.254 25.8512 126.983 25.8512ZM127.98 13.4376C130.22 13.4376 131.709 15.361 131.709 18.2393C131.709 21.1313 130.234 23.0275 127.98 23.0275C125.727 23.0275 124.251 21.1722 124.251 18.2393C124.251 15.3201 125.727 13.4376 127.98 13.4376ZM161.252 25.6876V6.00299H157.742V14.1878H148.154V6.00299H144.63V25.6876H148.154V17.148H157.742V25.6876H161.252ZM171.005 25.9058C175.43 25.9058 178.203 22.9865 178.203 18.2257C178.203 13.5058 175.403 10.5729 171.005 10.5729C166.634 10.5729 163.82 13.5194 163.82 18.2257C163.82 22.9865 166.607 25.9058 171.005 25.9058ZM171.005 23.1912C168.683 23.1912 167.276 21.3632 167.276 18.2393C167.276 15.1291 168.683 13.2875 171.005 13.2875C173.34 13.2875 174.747 15.1155 174.747 18.2393C174.747 21.3632 173.354 23.1912 171.005 23.1912ZM193.623 10.7775H190.222V19.3307C190.222 21.5406 188.952 23.0002 186.876 23.0002C184.868 23.0002 183.817 21.827 183.817 19.6581V10.7775H180.415V20.3401C180.415 23.7778 182.45 25.8785 185.701 25.8785C187.968 25.8785 189.458 24.8964 190.277 23.082H190.359V25.6876H193.623V10.7775ZM196.259 15.0882C196.259 17.2026 197.653 18.6077 200.384 19.2488L203.089 19.9036C204.577 20.2583 205.124 20.7221 205.124 21.5952C205.124 22.7001 204.045 23.3958 202.31 23.3958C200.535 23.3958 199.428 22.6455 199.224 21.295H195.877C196.096 24.0642 198.513 25.9058 202.174 25.9058C205.916 25.9058 208.511 24.0369 208.511 21.2677C208.511 19.0715 207.364 17.9393 204.359 17.2435L201.737 16.6433C200.262 16.3023 199.565 15.7293 199.565 14.8972C199.565 13.8059 200.603 13.0829 202.187 13.0829C203.813 13.0829 204.892 13.8741 205.001 15.1291H208.17C208.101 12.4281 205.698 10.5729 202.256 10.5729C198.663 10.5729 196.259 12.3872 196.259 15.0882ZM217.171 13.2193C219.192 13.2193 220.585 14.638 220.654 16.7934H213.579C213.729 14.6653 215.177 13.2193 217.171 13.2193ZM220.667 21.2541C220.271 22.4818 219.001 23.2594 217.362 23.2594C215.081 23.2594 213.551 21.6633 213.551 19.2625V19.0578H224V17.9393C224 13.4239 221.35 10.5729 217.171 10.5729C212.896 10.5729 210.15 13.6012 210.15 18.2939C210.15 22.9865 212.882 25.9058 217.293 25.9058C220.777 25.9058 223.426 24.0097 223.864 21.2541H220.667Z" fill="#151515"/>
<path id="Vector_3" d="M67.6607 47.1397C69.7642 47.1397 71.0479 46.0757 71.0479 44.3432C71.0479 43.0404 70.1054 42.0787 68.7672 41.9491V41.8945C69.7777 41.7309 70.5629 40.8101 70.5629 39.7529C70.5629 38.2591 69.409 37.2974 67.6198 37.2974H63.4468V47.1397H67.6607ZM65.2091 38.6683H67.1827C68.2272 38.6683 68.8216 39.1526 68.8216 40.012C68.8216 40.926 68.1318 41.4444 66.9025 41.4444H65.2091V38.6683ZM65.2091 45.7687V42.6926H67.1892C68.5349 42.6926 69.2452 43.2178 69.2452 44.2204C69.2452 45.2299 68.5554 45.7687 67.2576 45.7687H65.2091ZM72.0655 40.2166V40.2371H73.7183V40.2099C73.7183 39.2345 74.4831 38.5115 75.5076 38.5115C76.4842 38.5115 77.2149 39.1594 77.2149 39.9711C77.2149 40.7077 76.9072 41.2125 75.7873 42.3515L72.1609 45.9529V47.1397H79.0861V45.7005H74.5106V45.6664L76.9482 43.2587C78.2389 41.956 78.9358 41.0692 78.9358 39.8961C78.9358 38.3 77.5291 37.0996 75.5621 37.0996C73.52 37.0996 72.0655 38.4023 72.0655 40.2166ZM84.7611 47.1397C86.8646 47.1397 88.1483 46.0757 88.1483 44.3432C88.1483 43.0404 87.2062 42.0787 85.8675 41.9491V41.8945C86.878 41.7309 87.6638 40.8101 87.6638 39.7529C87.6638 38.2591 86.5094 37.2974 84.7201 37.2974H80.5477V47.1397H84.7611ZM82.3095 38.6683H84.2831C85.3281 38.6683 85.922 39.1526 85.922 40.012C85.922 40.926 85.2321 41.4444 84.0033 41.4444H82.3095V38.6683ZM82.3095 45.7687V42.6926H84.2901C85.6352 42.6926 86.3456 43.2178 86.3456 44.2204C86.3456 45.2299 85.6557 45.7687 84.358 45.7687H82.3095ZM102.695 37.2974H100.66L97.6411 44.7252H97.5866L94.5681 37.2974H92.526V47.1397H94.1175V40.1553H94.1649L97.0127 47.0578H98.215L101.063 40.1553H101.111V47.1397H102.695V37.2974ZM106.99 45.9188C106.198 45.9188 105.679 45.5368 105.679 44.9366C105.679 44.3296 106.171 43.9749 107.1 43.9135L108.807 43.8044V44.3705C108.807 45.2776 108.021 45.9188 106.99 45.9188ZM106.492 47.2216C107.482 47.2216 108.404 46.7373 108.814 45.9393H108.855V47.1397H110.487V42.031C110.487 40.5509 109.278 39.5824 107.414 39.5824C105.659 39.5824 104.389 40.5577 104.348 41.9218H105.919C106.034 41.3216 106.587 40.9192 107.359 40.9192C108.274 40.9192 108.807 41.3489 108.807 42.1401V42.6858L106.868 42.8017C104.989 42.9177 103.972 43.6748 103.972 45.0048C103.972 46.328 105.024 47.2216 106.492 47.2216ZM111.914 47.1397H113.615V42.8153C113.615 41.765 114.216 41.117 115.213 41.117C115.507 41.117 115.773 41.1579 115.916 41.2125V39.671C115.786 39.6301 115.596 39.6028 115.37 39.6028C114.489 39.6028 113.82 40.1075 113.581 40.9806H113.547V39.6846H111.914V47.1397ZM118.607 42.8153H118.587V36.8404H116.886V47.1397H118.587V44.5342L119.188 43.9271L121.592 47.1397H123.558L120.417 42.8972L123.435 39.6846H121.462L118.607 42.8153ZM127.13 40.9055C128.141 40.9055 128.837 41.6149 128.872 42.6926H125.334C125.409 41.6285 126.133 40.9055 127.13 40.9055ZM128.878 44.9229C128.68 45.5368 128.045 45.9256 127.226 45.9256C126.085 45.9256 125.32 45.1276 125.32 43.9271V43.8248H130.545V43.2655C130.545 41.0079 129.22 39.5824 127.13 39.5824C124.992 39.5824 123.62 41.0965 123.62 43.4428C123.62 45.7892 124.985 47.2488 127.191 47.2488C128.933 47.2488 130.258 46.3008 130.477 44.9229H128.878ZM132.17 38.0204V39.6846H131.152V41.001H132.17V45.1617C132.17 46.6008 132.798 47.1738 134.383 47.1738C134.745 47.1738 135.093 47.1465 135.277 47.1056V45.8028C135.168 45.8165 134.936 45.8369 134.772 45.8369C134.158 45.8369 133.871 45.5436 133.871 44.9298V41.001H135.284V39.6846H133.871V38.0204H132.17ZM140.536 39.6028C139.491 39.6028 138.59 40.1212 138.18 40.9397H138.146V39.6846H136.486V49.5952H138.187V45.9051H138.221C138.651 46.7373 139.491 47.2216 140.563 47.2216C142.441 47.2216 143.643 45.7482 143.643 43.4156C143.643 41.0761 142.434 39.6028 140.536 39.6028ZM140.037 45.8097C138.924 45.8097 138.18 44.8547 138.18 43.4156C138.18 41.9832 138.924 41.0147 140.037 41.0147C141.164 41.0147 141.902 41.9627 141.902 43.4156C141.902 44.8752 141.164 45.8097 140.037 45.8097ZM144.845 47.1397H146.546V36.8404H144.845V47.1397ZM150.752 45.9188C149.96 45.9188 149.441 45.5368 149.441 44.9366C149.441 44.3296 149.933 43.9749 150.862 43.9135L152.569 43.8044V44.3705C152.569 45.2776 151.784 45.9188 150.752 45.9188ZM150.254 47.2216C151.244 47.2216 152.166 46.7373 152.576 45.9393H152.617V47.1397H154.249V42.031C154.249 40.5509 153.04 39.5824 151.176 39.5824C149.421 39.5824 148.15 40.5577 148.109 41.9218H149.68C149.796 41.3216 150.35 40.9192 151.122 40.9192C152.037 40.9192 152.569 41.3489 152.569 42.1401V42.6858L150.63 42.8017C148.752 42.9177 147.734 43.6748 147.734 45.0048C147.734 46.328 148.786 47.2216 150.254 47.2216ZM162.212 42.3243C162.096 40.7896 160.874 39.5824 158.92 39.5824C156.763 39.5824 155.362 41.0761 155.362 43.4088C155.362 45.7892 156.769 47.2488 158.934 47.2488C160.799 47.2488 162.075 46.178 162.219 44.5478H160.614C160.457 45.3936 159.856 45.8642 158.948 45.8642C157.827 45.8642 157.09 44.9571 157.09 43.4088C157.09 41.9082 157.821 40.967 158.941 40.967C159.897 40.967 160.484 41.5399 160.607 42.3243H162.212ZM166.467 40.9055C167.478 40.9055 168.174 41.6149 168.208 42.6926H164.671C164.746 41.6285 165.47 40.9055 166.467 40.9055ZM168.215 44.9229C168.017 45.5368 167.382 45.9256 166.562 45.9256C165.422 45.9256 164.657 45.1276 164.657 43.9271V43.8248H169.881V43.2655C169.881 41.0079 168.557 39.5824 166.467 39.5824C164.329 39.5824 162.957 41.0965 162.957 43.4428C162.957 45.7892 164.322 47.2488 166.528 47.2488C168.27 47.2488 169.595 46.3008 169.813 44.9229H168.215Z" fill="#151515" fill-opacity="0.48"/>
</g>
</g>
</g>
<defs>
<linearGradient id="paint0_linear_140094_4855" x1="5.29115" y1="8.60612" x2="45.4162" y2="45.0218" gradientUnits="userSpaceOnUse">
<stop stop-color="#3CE900"/>
<stop offset="0.492673" stop-color="#00F4B9"/>
<stop offset="1" stop-color="#FAFF00"/>
</linearGradient>
</defs>
</svg>
