<svg width="16" height="16" viewBox="0 0 16 16" fill="none" xmlns="http://www.w3.org/2000/svg">
<g clip-path="url(#clip0_140219_6091)">
<path d="M11.333 3.99992H14.6663V5.33325H13.333V13.9999C13.333 14.1767 13.2628 14.3463 13.1377 14.4713C13.0127 14.5963 12.8432 14.6666 12.6663 14.6666H3.33301C3.1562 14.6666 2.98663 14.5963 2.8616 14.4713C2.73658 14.3463 2.66634 14.1767 2.66634 13.9999V5.33325H1.33301V3.99992H4.66634V1.99992C4.66634 1.82311 4.73658 1.65354 4.8616 1.52851C4.98663 1.40349 5.1562 1.33325 5.33301 1.33325H10.6663C10.8432 1.33325 11.0127 1.40349 11.1377 1.52851C11.2628 1.65354 11.333 1.82311 11.333 1.99992V3.99992ZM11.9997 5.33325H3.99967V13.3333H11.9997V5.33325ZM5.99967 2.66659V3.99992H9.99967V2.66659H5.99967Z" fill="white"/>
</g>
<defs>
<clipPath id="clip0_140219_6091">
<rect width="16" height="16" fill="white"/>
</clipPath>
</defs>
</svg>
