<svg width="32" height="32" viewBox="0 0 32 32" fill="none" xmlns="http://www.w3.org/2000/svg">
<g clip-path="url(#clip0_139937_4856)">
<path d="M8.31329 8.60433C6.61335 10.3687 5.57263 12.6645 5.36605 15.1059C5.15948 17.5472 5.79965 19.9853 7.17897 22.0102C8.55828 24.0351 10.5926 25.5235 12.9401 26.2251C15.2876 26.9268 17.805 26.7989 20.0693 25.863C20.2226 24.863 19.8866 23.903 19.7493 23.567C19.4426 22.8203 18.432 21.5443 16.7453 19.775C16.2946 19.3017 16.324 18.9377 16.4853 17.859L16.5026 17.7377C16.612 16.999 16.796 16.5617 19.2826 16.167C20.5466 15.967 20.8786 16.471 21.3386 17.171L21.4933 17.4003C21.9306 18.0403 22.2546 18.187 22.744 18.4083C22.964 18.5083 23.2373 18.635 23.604 18.8417C24.4733 19.339 24.4733 19.9003 24.4733 21.1297V21.2697C24.4733 21.791 24.4226 22.2497 24.3426 22.6483C25.3658 21.3642 26.0788 19.8613 26.4261 18.2566C26.7734 16.6519 26.7457 14.9886 26.345 13.3964C25.9444 11.8041 25.1817 10.3258 24.1164 9.07651C23.051 7.82722 21.7116 6.84067 20.2026 6.19366C19.4653 6.69099 18.4533 7.39633 18.1 7.88033C17.92 8.12699 17.664 9.38966 16.8333 9.49366C16.6173 9.52032 16.3253 9.50166 16.016 9.48166C15.1866 9.42833 14.0533 9.35499 13.6906 10.3403C13.46 10.9643 13.42 12.6603 14.1653 13.5403C14.2853 13.6803 14.308 13.9403 14.2266 14.2323C14.12 14.615 13.9053 14.8483 13.8373 14.8963C13.7093 14.8217 13.4533 14.5243 13.2786 14.323C12.8613 13.8363 12.3386 13.2297 11.664 13.043C11.4186 12.975 11.1493 12.919 10.8866 12.863C10.1546 12.7097 9.32663 12.535 9.13329 12.1243C8.99196 11.823 8.99329 11.4083 8.99329 10.971C8.99329 10.415 8.99329 9.78699 8.72129 9.17766C8.62673 8.9602 8.48776 8.76492 8.31329 8.60433V8.60433ZM16 29.3337C8.63596 29.3337 2.66663 23.3643 2.66663 16.0003C2.66663 8.63633 8.63596 2.66699 16 2.66699C23.364 2.66699 29.3333 8.63633 29.3333 16.0003C29.3333 23.3643 23.364 29.3337 16 29.3337Z" fill="white"/>
</g>
<defs>
<clipPath id="clip0_139937_4856">
<rect width="32" height="32" fill="white"/>
</clipPath>
</defs>
</svg>
