<svg width="120" height="120" viewBox="0 0 120 120" fill="none" xmlns="http://www.w3.org/2000/svg">
<g clip-path="url(#clip0_139661_2100)">
<path d="M119.522 32.0349L80.1562 9.17059C79.8576 8.99587 79.4909 8.99587 79.1923 9.17059L59.5181 20.5965C59.0602 20.8624 58.9037 21.449 59.1706 21.9079C59.4365 22.3677 60.023 22.5204 60.4819 22.2554L79.6742 11.1098L117.133 32.8672L99.3677 43.2535L64.7395 23.0752C64.2806 22.8103 63.6931 22.9629 63.4262 23.4208C63.1594 23.8788 63.3139 24.4672 63.7718 24.7341L98.8848 45.1936C99.0346 45.281 99.2016 45.3242 99.3686 45.3242C99.5366 45.3242 99.7027 45.28 99.8534 45.1936L119.525 33.6928C119.82 33.521 120.001 33.2042 120 32.8634C119.999 32.5216 119.818 32.2068 119.522 32.0349Z" fill="#151515"/>
<path d="M60.4819 20.5955L40.8077 9.16961C40.5091 8.99489 40.1424 8.99489 39.8438 9.16961L0.478084 32.0339C0.182404 32.2048 0.000963791 32.5207 3.79074e-06 32.8624C-0.000956209 33.2032 0.180484 33.5191 0.475204 33.6919L20.1456 45.1927C20.2982 45.2819 20.4643 45.3242 20.6294 45.3242C20.9597 45.3242 21.2813 45.1543 21.4589 44.849C21.7267 44.392 21.5731 43.8026 21.1152 43.5357L2.86656 32.8653L40.3258 11.1079L58.0915 21.4269L24.9245 40.7536C24.4675 41.0205 24.313 41.608 24.5789 42.0669C24.8467 42.5248 25.4323 42.6784 25.8922 42.4125L60.4838 22.2535C60.7795 22.0816 60.96 21.7648 60.96 21.4231C60.96 21.0823 60.7786 20.7664 60.4819 20.5955Z" fill="#151515"/>
<path d="M60 66.5259C59.4691 66.5259 59.04 66.955 59.04 67.4859V108.337L21.6605 86.706V67.4859C21.6605 66.955 21.2314 66.5259 20.7005 66.5259C20.1696 66.5259 19.7405 66.955 19.7405 67.4859V87.26C19.7405 87.6017 19.9229 87.9185 20.2195 88.0904L59.519 110.832C59.6678 110.918 59.8339 110.961 60 110.961C60.1661 110.961 60.3312 110.918 60.48 110.833C60.7776 110.662 60.96 110.344 60.96 110.001V67.4859C60.96 66.955 60.5309 66.5259 60 66.5259Z" fill="#151515"/>
<path d="M99.3005 66.5259C98.7696 66.5259 98.3405 66.955 98.3405 67.4859V86.587L60.96 108.333V67.4859C60.96 66.955 60.5309 66.5259 60 66.5259C59.4691 66.5259 59.04 66.955 59.04 67.4859V110.001C59.04 110.344 59.2233 110.662 59.5209 110.834C59.6697 110.919 59.8349 110.961 60 110.961C60.167 110.961 60.3341 110.918 60.4829 110.831L99.7833 87.9684C100.079 87.7976 100.26 87.4808 100.26 87.139V67.4859C100.26 66.955 99.8313 66.5259 99.3005 66.5259Z" fill="#151515"/>
<path d="M60.8285 66.7448C60.5626 66.2878 59.975 66.1332 59.5152 66.4011L40.3267 77.6197L2.86848 55.7921L20.6342 45.474L54.2746 65.0129C54.7325 65.2798 55.32 65.1243 55.5859 64.6654C55.8538 64.2075 55.6973 63.62 55.2384 63.354L21.1162 43.5348C20.8176 43.3601 20.4509 43.3601 20.1523 43.5348L0.47808 54.9617C0.18144 55.1326 0 55.4494 0 55.7902C0 56.1329 0.18048 56.4488 0.47616 56.6206L39.8438 79.5617C39.9936 79.6491 40.1606 79.6923 40.3277 79.6923C40.4957 79.6923 40.6618 79.6481 40.8125 79.5588L60.4848 68.0581C60.9418 67.7912 61.0954 67.2027 60.8285 66.7448Z" fill="#151515"/>
<path d="M119.522 54.9637L99.8477 43.5368C99.3897 43.2709 98.8022 43.4254 98.5363 43.8843C98.2684 44.3422 98.4249 44.9298 98.8838 45.1957L117.131 55.7941L79.6732 77.6216L60.4848 66.403C60.0259 66.1342 59.4374 66.2878 59.1715 66.7467C58.9037 67.2037 59.0573 67.7931 59.5152 68.06L79.1875 79.5608C79.3373 79.6482 79.5043 79.6923 79.6723 79.6923C79.8393 79.6923 80.0064 79.6491 80.1561 79.5618L119.524 56.6226C119.819 56.4507 120 56.1339 120 55.7922C120 55.4514 119.819 55.1355 119.522 54.9637Z" fill="#151515"/>
<path d="M95.7523 46.4619C95.4854 46.0021 94.896 45.8485 94.441 46.1144L59.5181 66.4011C59.0602 66.667 58.9037 67.2536 59.1706 67.7125C59.3482 68.0197 59.6698 68.1906 60.001 68.1906C60.1651 68.1906 60.3312 68.1483 60.4819 68.06L95.4048 47.7733C95.8627 47.5074 96.0192 46.9208 95.7523 46.4619Z" fill="#151515"/>
<path d="M60 20.6514C59.4691 20.6514 59.04 21.0805 59.04 21.6114V62.8069C59.04 63.3378 59.4691 63.7669 60 63.7669C60.5309 63.7669 60.96 63.3378 60.96 62.8069V21.6114C60.96 21.0805 60.5309 20.6514 60 20.6514Z" fill="#151515"/>
</g>
<defs>
<clipPath id="clip0_139661_2100">
<rect width="120" height="120" fill="white"/>
</clipPath>
</defs>
</svg>
