<svg width="25" height="24" viewBox="0 0 25 24" fill="none" xmlns="http://www.w3.org/2000/svg">
<g clip-path="url(#clip0_139795_4592)">
<path d="M21.5 15V18H24.5V20H21.5V23H19.5V20H16.5V18H19.5V15H21.5ZM21.508 3C22.056 3 22.5 3.445 22.5 3.993V13H20.5V5H4.5V18.999L14.5 9L17.5 12V14.829L14.5 11.829L7.327 19H14.5V21H3.492C3.22881 20.9997 2.9765 20.895 2.79049 20.7088C2.60448 20.5226 2.5 20.2702 2.5 20.007V3.993C2.50183 3.73038 2.6069 3.47902 2.79251 3.29322C2.97813 3.10742 3.22938 3.00209 3.492 3H21.508ZM8.5 7C9.03043 7 9.53914 7.21071 9.91421 7.58579C10.2893 7.96086 10.5 8.46957 10.5 9C10.5 9.53043 10.2893 10.0391 9.91421 10.4142C9.53914 10.7893 9.03043 11 8.5 11C7.96957 11 7.46086 10.7893 7.08579 10.4142C6.71071 10.0391 6.5 9.53043 6.5 9C6.5 8.46957 6.71071 7.96086 7.08579 7.58579C7.46086 7.21071 7.96957 7 8.5 7V7Z" fill="#151515" fill-opacity="0.72"/>
</g>
<defs>
<clipPath id="clip0_139795_4592">
<rect width="24" height="24" fill="white" transform="translate(0.5)"/>
</clipPath>
</defs>
</svg>
