<svg width="32" height="32" viewBox="0 0 32 32" fill="none" xmlns="http://www.w3.org/2000/svg">
<g clip-path="url(#clip0_139932_4852)">
<path d="M28 15.5283V28.0003C28 28.3539 27.8595 28.6931 27.6094 28.9431C27.3594 29.1932 27.0203 29.3337 26.6666 29.3337H5.3333C4.97968 29.3337 4.64054 29.1932 4.39049 28.9431C4.14044 28.6931 3.99997 28.3539 3.99997 28.0003V15.5283C3.13905 14.5549 2.6647 13.2998 2.66663 12.0003V4.00033C2.66663 3.6467 2.80711 3.30756 3.05716 3.05752C3.3072 2.80747 3.64634 2.66699 3.99997 2.66699H28C28.3536 2.66699 28.6927 2.80747 28.9428 3.05752C29.1928 3.30756 29.3333 3.6467 29.3333 4.00033V12.0003C29.3333 13.3523 28.8293 14.587 28 15.5283ZM25.3333 17.1657C24.3798 17.4106 23.3771 17.3874 22.4359 17.0984C21.4948 16.8095 20.6518 16.2661 20 15.5283C19.5 16.0964 18.8846 16.5513 18.1948 16.8627C17.505 17.174 16.7567 17.3346 16 17.3337C15.2432 17.3346 14.4949 17.174 13.8051 16.8627C13.1154 16.5513 12.4999 16.0964 12 15.5283C11.3497 16.2682 10.5068 16.8131 9.56514 17.1022C8.62348 17.3913 7.62005 17.4132 6.66663 17.1657V26.667H25.3333V17.1657V17.1657ZM18.6666 12.0003C18.6666 11.6467 18.8071 11.3076 19.0572 11.0575C19.3072 10.8075 19.6463 10.667 20 10.667C20.3536 10.667 20.6927 10.8075 20.9428 11.0575C21.1928 11.3076 21.3333 11.6467 21.3333 12.0003C21.3333 12.7076 21.6143 13.3858 22.1143 13.8859C22.6144 14.386 23.2927 14.667 24 14.667C24.7072 14.667 25.3855 14.386 25.8856 13.8859C26.3857 13.3858 26.6666 12.7076 26.6666 12.0003V5.33366H5.3333V12.0003C5.3333 12.7076 5.61425 13.3858 6.11435 13.8859C6.61444 14.386 7.29272 14.667 7.99997 14.667C8.70721 14.667 9.38549 14.386 9.88558 13.8859C10.3857 13.3858 10.6666 12.7076 10.6666 12.0003C10.6666 11.6467 10.8071 11.3076 11.0572 11.0575C11.3072 10.8075 11.6463 10.667 12 10.667C12.3536 10.667 12.6927 10.8075 12.9428 11.0575C13.1928 11.3076 13.3333 11.6467 13.3333 12.0003C13.3333 12.7076 13.6143 13.3858 14.1143 13.8859C14.6144 14.386 15.2927 14.667 16 14.667C16.7072 14.667 17.3855 14.386 17.8856 13.8859C18.3857 13.3858 18.6666 12.7076 18.6666 12.0003Z" fill="#151515" fill-opacity="0.72"/>
</g>
<defs>
<clipPath id="clip0_139932_4852">
<rect width="32" height="32" fill="white"/>
</clipPath>
</defs>
</svg>
