<svg width="32" height="32" viewBox="0 0 32 32" fill="none" xmlns="http://www.w3.org/2000/svg">
<g clip-path="url(#clip0_139758_4503)">
<path d="M28 15.5283V28.0003C28 28.3539 27.8595 28.6931 27.6095 28.9431C27.3594 29.1932 27.0203 29.3337 26.6667 29.3337H5.33333C4.97971 29.3337 4.64057 29.1932 4.39052 28.9431C4.14047 28.6931 4 28.3539 4 28.0003V15.5283C3.13908 14.5549 2.66473 13.2998 2.66666 12.0003V4.00033C2.66666 3.6467 2.80714 3.30756 3.05719 3.05752C3.30724 2.80747 3.64637 2.66699 4 2.66699H28C28.3536 2.66699 28.6928 2.80747 28.9428 3.05752C29.1929 3.30756 29.3333 3.6467 29.3333 4.00033V12.0003C29.3333 13.3523 28.8293 14.587 28 15.5283ZM25.3333 17.1657C24.3798 17.4106 23.3771 17.3874 22.436 17.0984C21.4948 16.8095 20.6518 16.2661 20 15.5283C19.5 16.0964 18.8846 16.5513 18.1948 16.8627C17.505 17.174 16.7568 17.3346 16 17.3337C15.2432 17.3346 14.495 17.174 13.8052 16.8627C13.1154 16.5513 12.5 16.0964 12 15.5283C11.3497 16.2682 10.5068 16.8131 9.56517 17.1022C8.62351 17.3913 7.62008 17.4132 6.66666 17.1657V26.667H25.3333V17.1657V17.1657ZM18.6667 12.0003C18.6667 11.6467 18.8071 11.3076 19.0572 11.0575C19.3072 10.8075 19.6464 10.667 20 10.667C20.3536 10.667 20.6928 10.8075 20.9428 11.0575C21.1929 11.3076 21.3333 11.6467 21.3333 12.0003C21.3333 12.7076 21.6143 13.3858 22.1144 13.8859C22.6145 14.386 23.2928 14.667 24 14.667C24.7072 14.667 25.3855 14.386 25.8856 13.8859C26.3857 13.3858 26.6667 12.7076 26.6667 12.0003V5.33366H5.33333V12.0003C5.33333 12.7076 5.61428 13.3858 6.11438 13.8859C6.61447 14.386 7.29275 14.667 8 14.667C8.70724 14.667 9.38552 14.386 9.88561 13.8859C10.3857 13.3858 10.6667 12.7076 10.6667 12.0003C10.6667 11.6467 10.8071 11.3076 11.0572 11.0575C11.3072 10.8075 11.6464 10.667 12 10.667C12.3536 10.667 12.6928 10.8075 12.9428 11.0575C13.1929 11.3076 13.3333 11.6467 13.3333 12.0003C13.3333 12.7076 13.6143 13.3858 14.1144 13.8859C14.6145 14.386 15.2928 14.667 16 14.667C16.7072 14.667 17.3855 14.386 17.8856 13.8859C18.3857 13.3858 18.6667 12.7076 18.6667 12.0003Z" fill="white"/>
</g>
<defs>
<clipPath id="clip0_139758_4503">
<rect width="32" height="32" fill="white"/>
</clipPath>
</defs>
</svg>
